<?xml version="1.0" encoding="iso-8859-1"?>
<!-- Generator: Adobe Illustrator 17.1.0, SVG Export Plug-In . SVG Version: 6.00 Build 0)  -->
<!DOCTYPE svg PUBLIC "-//W3C//DTD SVG 1.1//EN" "http://www.w3.org/Graphics/SVG/1.1/DTD/svg11.dtd">
<svg xmlns="http://www.w3.org/2000/svg" xmlns:xlink="http://www.w3.org/1999/xlink" version="1.1" id="Capa_1" x="0px" y="0px" viewBox="0 0 203.504 203.504" style="enable-background:new 0 0 203.504 203.504;" xml:space="preserve" width="512px" height="512px">
<path d="M188.091,8.002H15.413C6.914,8.002,0,14.916,0,23.414v0.471V130.13v15.459c0,8.499,6.914,15.413,15.413,15.413h61.662  l-8.615,24.5H47.502c-2.762,0-5,2.238-5,5s2.238,5,5,5h24.5h59.5h24.5c2.762,0,5-2.238,5-5s-2.238-5-5-5h-20.958l-8.615-24.5h61.662  c8.499,0,15.413-6.914,15.413-15.413V130.13V23.885v-0.471C203.504,14.916,196.59,8.002,188.091,8.002z M193.504,145.589  c0,2.984-2.429,5.413-5.413,5.413h-68.72H84.133h-68.72c-2.984,0-5.413-2.429-5.413-5.413V135.13h183.504V145.589z M189.084,88.913  l-67.271,0.823c-1.789,0.043-3.521-0.953-4.417-2.544l-2.974-5.274l-8.068,25.714c-0.657,2.097-2.6,3.503-4.768,3.503  c-0.124,0-0.249-0.005-0.374-0.014c-2.315-0.172-4.209-1.917-4.568-4.211l-7.323-46.678l-5.072,23.896  c-0.49,2.31-2.529,3.962-4.891,3.962H15.535c-2.762,0-5-2.238-5-5s2.238-5,5-5h59.773l9.86-46.452  c0.491-2.314,2.535-3.962,4.889-3.962c0.046,0,0.091,0.001,0.136,0.002c2.411,0.064,4.432,1.841,4.806,4.223l8.212,52.347  l5.127-16.339c0.597-1.901,2.266-3.268,4.248-3.476c1.982-0.21,3.899,0.781,4.878,2.517l7.188,12.751l64.309-0.787  c0.021,0,0.042,0,0.063,0c2.733,0,4.965,2.198,4.999,4.938C194.056,86.613,191.845,88.879,189.084,88.913z" fill="#D80027"/>
</svg>
